<svg width="218" height="24" viewBox="0 0 218 24" fill="none" xmlns="http://www.w3.org/2000/svg">
<circle cx="12" cy="12" r="12" fill="#F6F6F6"/>
<rect x="2" y="10" width="20" height="4" rx="2" fill="#3C3C9F"/>
<path d="M27.0805 15.39C27.2485 15.51 27.5305 15.642 27.9265 15.786C28.3225 15.93 28.7785 16.002 29.2945 16.002C29.7985 16.002 30.2005 15.918 30.5005 15.75C30.8005 15.57 31.0285 15.3 31.1845 14.94C31.3405 14.58 31.4425 14.136 31.4905 13.608C31.5385 13.068 31.5625 12.438 31.5625 11.718V5.22H34.0465V11.718C34.0465 12.69 33.9925 13.578 33.8845 14.382C33.7885 15.174 33.5725 15.852 33.2365 16.416C32.9125 16.98 32.4385 17.418 31.8145 17.73C31.1905 18.042 30.3505 18.198 29.2945 18.198C28.2145 18.198 27.2905 17.934 26.5225 17.406L27.0805 15.39ZM38.7872 18.18C38.3312 18.18 37.9052 18.108 37.5092 17.964C37.1132 17.808 36.7712 17.598 36.4832 17.334C36.1952 17.058 35.9672 16.74 35.7992 16.38C35.6432 16.02 35.5652 15.624 35.5652 15.192C35.5652 14.748 35.6612 14.34 35.8532 13.968C36.0572 13.584 36.3332 13.26 36.6812 12.996C37.0412 12.732 37.4672 12.528 37.9592 12.384C38.4512 12.228 38.9912 12.15 39.5792 12.15C39.9992 12.15 40.4072 12.186 40.8032 12.258C41.2112 12.33 41.5712 12.432 41.8832 12.564V12.024C41.8832 11.4 41.7032 10.92 41.3432 10.584C40.9952 10.248 40.4732 10.08 39.7772 10.08C39.2732 10.08 38.7812 10.17 38.3012 10.35C37.8212 10.53 37.3292 10.794 36.8252 11.142L36.0872 9.612C37.2992 8.808 38.6072 8.406 40.0112 8.406C41.3672 8.406 42.4172 8.742 43.1612 9.414C43.9172 10.074 44.2952 11.034 44.2952 12.294V15.228C44.2952 15.48 44.3372 15.66 44.4212 15.768C44.5172 15.876 44.6672 15.936 44.8712 15.948V18C44.4632 18.084 44.1092 18.126 43.8092 18.126C43.3532 18.126 42.9992 18.024 42.7472 17.82C42.5072 17.616 42.3572 17.346 42.2972 17.01L42.2432 16.488C41.8232 17.04 41.3132 17.46 40.7132 17.748C40.1132 18.036 39.4712 18.18 38.7872 18.18ZM39.4712 16.416C39.8792 16.416 40.2632 16.344 40.6232 16.2C40.9952 16.056 41.2832 15.864 41.4872 15.624C41.7512 15.42 41.8832 15.192 41.8832 14.94V13.86C41.5952 13.752 41.2832 13.668 40.9472 13.608C40.6112 13.536 40.2872 13.5 39.9752 13.5C39.3512 13.5 38.8412 13.644 38.4452 13.932C38.0492 14.208 37.8512 14.562 37.8512 14.994C37.8512 15.402 38.0072 15.744 38.3192 16.02C38.6312 16.284 39.0152 16.416 39.4712 16.416ZM50.1132 18.18C49.3212 18.18 48.5472 18.054 47.7912 17.802C47.0352 17.55 46.3872 17.19 45.8472 16.722L46.7472 15.21C47.3232 15.618 47.8812 15.93 48.4212 16.146C48.9732 16.35 49.5192 16.452 50.0592 16.452C50.5392 16.452 50.9172 16.362 51.1932 16.182C51.4692 16.002 51.6072 15.744 51.6072 15.408C51.6072 15.072 51.4452 14.826 51.1212 14.67C50.7972 14.514 50.2692 14.334 49.5372 14.13C48.9252 13.962 48.4032 13.8 47.9712 13.644C47.5392 13.488 47.1912 13.314 46.9272 13.122C46.6632 12.918 46.4712 12.69 46.3512 12.438C46.2312 12.174 46.1712 11.862 46.1712 11.502C46.1712 11.022 46.2612 10.59 46.4412 10.206C46.6332 9.822 46.8972 9.498 47.2332 9.234C47.5692 8.958 47.9592 8.748 48.4032 8.604C48.8592 8.46 49.3512 8.388 49.8792 8.388C50.5872 8.388 51.2472 8.49 51.8592 8.694C52.4832 8.898 53.0532 9.228 53.5692 9.684L52.5972 11.142C52.1172 10.782 51.6492 10.518 51.1932 10.35C50.7492 10.182 50.3052 10.098 49.8612 10.098C49.4532 10.098 49.1112 10.182 48.8352 10.35C48.5592 10.518 48.4212 10.788 48.4212 11.16C48.4212 11.328 48.4512 11.466 48.5112 11.574C48.5832 11.682 48.6912 11.778 48.8352 11.862C48.9792 11.946 49.1652 12.03 49.3932 12.114C49.6332 12.186 49.9272 12.264 50.2752 12.348C50.9232 12.516 51.4752 12.684 51.9312 12.852C52.3992 13.02 52.7772 13.212 53.0652 13.428C53.3652 13.644 53.5812 13.896 53.7132 14.184C53.8572 14.46 53.9292 14.796 53.9292 15.192C53.9292 16.116 53.5872 16.848 52.9032 17.388C52.2192 17.916 51.2892 18.18 50.1132 18.18ZM59.8524 18.18C59.0844 18.18 58.3944 18.048 57.7824 17.784C57.1704 17.52 56.6484 17.166 56.2164 16.722C55.7964 16.266 55.4724 15.744 55.2444 15.156C55.0164 14.568 54.9024 13.95 54.9024 13.302C54.9024 12.642 55.0164 12.018 55.2444 11.43C55.4724 10.842 55.7964 10.326 56.2164 9.882C56.6484 9.426 57.1704 9.066 57.7824 8.802C58.3944 8.538 59.0844 8.406 59.8524 8.406C60.6204 8.406 61.3044 8.538 61.9044 8.802C62.5164 9.066 63.0324 9.426 63.4524 9.882C63.8844 10.326 64.2144 10.842 64.4424 11.43C64.6704 12.018 64.7844 12.642 64.7844 13.302C64.7844 13.95 64.6704 14.568 64.4424 15.156C64.2144 15.744 63.8904 16.266 63.4704 16.722C63.0504 17.166 62.5344 17.52 61.9224 17.784C61.3104 18.048 60.6204 18.18 59.8524 18.18ZM57.3864 13.302C57.3864 13.722 57.4464 14.106 57.5664 14.454C57.6984 14.79 57.8724 15.084 58.0884 15.336C58.3164 15.588 58.5804 15.786 58.8804 15.93C59.1804 16.062 59.5044 16.128 59.8524 16.128C60.2004 16.128 60.5244 16.062 60.8244 15.93C61.1244 15.786 61.3824 15.588 61.5984 15.336C61.8264 15.084 62.0004 14.784 62.1204 14.436C62.2524 14.088 62.3184 13.704 62.3184 13.284C62.3184 12.876 62.2524 12.498 62.1204 12.15C62.0004 11.802 61.8264 11.502 61.5984 11.25C61.3824 10.998 61.1244 10.806 60.8244 10.674C60.5244 10.53 60.2004 10.458 59.8524 10.458C59.5044 10.458 59.1804 10.53 58.8804 10.674C58.5804 10.818 58.3164 11.016 58.0884 11.268C57.8724 11.52 57.6984 11.82 57.5664 12.168C57.4464 12.516 57.3864 12.894 57.3864 13.302ZM75.1785 18H72.7665V12.708C72.7665 11.952 72.6345 11.4 72.3705 11.052C72.1065 10.704 71.7405 10.53 71.2725 10.53C71.0325 10.53 70.7865 10.578 70.5345 10.674C70.2825 10.77 70.0425 10.908 69.8145 11.088C69.5985 11.256 69.4005 11.46 69.2205 11.7C69.0405 11.94 68.9085 12.204 68.8245 12.492V18H66.4125V8.568H68.5905V10.314C68.9385 9.714 69.4425 9.246 70.1025 8.91C70.7625 8.574 71.5065 8.406 72.3345 8.406C72.9225 8.406 73.4025 8.514 73.7745 8.73C74.1465 8.946 74.4345 9.228 74.6385 9.576C74.8425 9.924 74.9805 10.32 75.0525 10.764C75.1365 11.208 75.1785 11.658 75.1785 12.114V18ZM81.06 11.52C81.06 10.74 81.198 9.972 81.474 9.216C81.762 8.448 82.176 7.764 82.716 7.164C83.256 6.564 83.916 6.078 84.696 5.706C85.476 5.334 86.364 5.148 87.36 5.148C88.536 5.148 89.55 5.406 90.402 5.922C91.266 6.438 91.908 7.11 92.328 7.938L90.42 9.252C90.252 8.892 90.048 8.592 89.808 8.352C89.568 8.1 89.31 7.902 89.034 7.758C88.758 7.614 88.47 7.512 88.17 7.452C87.87 7.38 87.576 7.344 87.288 7.344C86.664 7.344 86.118 7.47 85.65 7.722C85.194 7.974 84.81 8.304 84.498 8.712C84.198 9.108 83.97 9.564 83.814 10.08C83.658 10.584 83.58 11.088 83.58 11.592C83.58 12.156 83.67 12.702 83.85 13.23C84.03 13.746 84.282 14.202 84.606 14.598C84.942 14.994 85.338 15.312 85.794 15.552C86.262 15.792 86.772 15.912 87.324 15.912C87.612 15.912 87.912 15.876 88.224 15.804C88.536 15.732 88.83 15.618 89.106 15.462C89.394 15.306 89.658 15.108 89.898 14.868C90.138 14.616 90.33 14.316 90.474 13.968L92.508 15.138C92.304 15.618 92.01 16.044 91.626 16.416C91.254 16.776 90.828 17.082 90.348 17.334C89.88 17.586 89.376 17.778 88.836 17.91C88.296 18.042 87.768 18.108 87.252 18.108C86.34 18.108 85.506 17.916 84.75 17.532C83.994 17.148 83.34 16.65 82.788 16.038C82.248 15.414 81.822 14.712 81.51 13.932C81.21 13.14 81.06 12.336 81.06 11.52ZM99.5558 10.656C98.8238 10.668 98.1698 10.812 97.5938 11.088C97.0178 11.352 96.6038 11.754 96.3518 12.294V18H93.9398V8.568H96.1538V10.584C96.3218 10.26 96.5198 9.972 96.7478 9.72C96.9758 9.456 97.2218 9.228 97.4858 9.036C97.7498 8.844 98.0138 8.7 98.2778 8.604C98.5538 8.496 98.8178 8.442 99.0698 8.442C99.2018 8.442 99.2978 8.442 99.3578 8.442C99.4298 8.442 99.4958 8.448 99.5558 8.46V10.656ZM103.352 18.18C102.896 18.18 102.47 18.108 102.074 17.964C101.678 17.808 101.336 17.598 101.048 17.334C100.76 17.058 100.532 16.74 100.364 16.38C100.208 16.02 100.13 15.624 100.13 15.192C100.13 14.748 100.226 14.34 100.418 13.968C100.622 13.584 100.898 13.26 101.246 12.996C101.606 12.732 102.032 12.528 102.524 12.384C103.016 12.228 103.556 12.15 104.144 12.15C104.564 12.15 104.972 12.186 105.368 12.258C105.776 12.33 106.136 12.432 106.448 12.564V12.024C106.448 11.4 106.268 10.92 105.908 10.584C105.56 10.248 105.038 10.08 104.342 10.08C103.838 10.08 103.346 10.17 102.866 10.35C102.386 10.53 101.894 10.794 101.39 11.142L100.652 9.612C101.864 8.808 103.172 8.406 104.576 8.406C105.932 8.406 106.982 8.742 107.726 9.414C108.482 10.074 108.86 11.034 108.86 12.294V15.228C108.86 15.48 108.902 15.66 108.986 15.768C109.082 15.876 109.232 15.936 109.436 15.948V18C109.028 18.084 108.674 18.126 108.374 18.126C107.918 18.126 107.564 18.024 107.312 17.82C107.072 17.616 106.922 17.346 106.862 17.01L106.808 16.488C106.388 17.04 105.878 17.46 105.278 17.748C104.678 18.036 104.036 18.18 103.352 18.18ZM104.036 16.416C104.444 16.416 104.828 16.344 105.188 16.2C105.56 16.056 105.848 15.864 106.052 15.624C106.316 15.42 106.448 15.192 106.448 14.94V13.86C106.16 13.752 105.848 13.668 105.512 13.608C105.176 13.536 104.852 13.5 104.54 13.5C103.916 13.5 103.406 13.644 103.01 13.932C102.614 14.208 102.416 14.562 102.416 14.994C102.416 15.402 102.572 15.744 102.884 16.02C103.196 16.284 103.58 16.416 104.036 16.416ZM116.478 18.18C115.758 18.18 115.116 18.018 114.552 17.694C113.988 17.37 113.544 16.926 113.22 16.362V18H111.114V4.86H113.526V10.224C113.862 9.648 114.3 9.204 114.84 8.892C115.392 8.568 116.034 8.406 116.766 8.406C117.378 8.406 117.936 8.538 118.44 8.802C118.944 9.066 119.376 9.42 119.736 9.864C120.108 10.308 120.39 10.83 120.582 11.43C120.786 12.03 120.888 12.66 120.888 13.32C120.888 14.004 120.774 14.64 120.546 15.228C120.33 15.816 120.024 16.332 119.628 16.776C119.232 17.208 118.764 17.55 118.224 17.802C117.684 18.054 117.102 18.18 116.478 18.18ZM115.812 16.128C116.196 16.128 116.55 16.056 116.874 15.912C117.198 15.756 117.474 15.552 117.702 15.3C117.93 15.048 118.104 14.754 118.224 14.418C118.356 14.082 118.422 13.722 118.422 13.338C118.422 12.954 118.362 12.588 118.242 12.24C118.122 11.892 117.948 11.586 117.72 11.322C117.504 11.058 117.246 10.848 116.946 10.692C116.646 10.536 116.316 10.458 115.956 10.458C115.416 10.458 114.93 10.638 114.498 10.998C114.078 11.346 113.754 11.778 113.526 12.294V14.544C113.61 14.784 113.73 15 113.886 15.192C114.054 15.384 114.24 15.552 114.444 15.696C114.648 15.828 114.87 15.936 115.11 16.02C115.35 16.092 115.584 16.128 115.812 16.128ZM128.051 17.514C127.727 17.658 127.331 17.802 126.863 17.946C126.395 18.09 125.903 18.162 125.387 18.162C125.051 18.162 124.733 18.12 124.433 18.036C124.145 17.952 123.887 17.82 123.659 17.64C123.443 17.448 123.269 17.208 123.137 16.92C123.005 16.62 122.939 16.26 122.939 15.84V10.422H121.697V8.568H122.939V5.508H125.351V8.568H127.331V10.422H125.351V15.03C125.351 15.366 125.435 15.606 125.603 15.75C125.783 15.882 125.999 15.948 126.251 15.948C126.503 15.948 126.749 15.906 126.989 15.822C127.229 15.738 127.421 15.666 127.565 15.606L128.051 17.514ZM134.923 10.656C134.191 10.668 133.537 10.812 132.961 11.088C132.385 11.352 131.971 11.754 131.719 12.294V18H129.307V8.568H131.521V10.584C131.689 10.26 131.887 9.972 132.115 9.72C132.343 9.456 132.589 9.228 132.853 9.036C133.117 8.844 133.381 8.7 133.645 8.604C133.921 8.496 134.185 8.442 134.437 8.442C134.569 8.442 134.665 8.442 134.725 8.442C134.797 8.442 134.863 8.448 134.923 8.46V10.656ZM140.167 18.18C139.411 18.18 138.727 18.054 138.115 17.802C137.503 17.538 136.981 17.184 136.549 16.74C136.117 16.296 135.781 15.78 135.541 15.192C135.313 14.604 135.199 13.986 135.199 13.338C135.199 12.666 135.313 12.036 135.541 11.448C135.769 10.848 136.099 10.326 136.531 9.882C136.963 9.426 137.485 9.066 138.097 8.802C138.721 8.538 139.417 8.406 140.185 8.406C140.953 8.406 141.637 8.538 142.237 8.802C142.849 9.066 143.365 9.42 143.785 9.864C144.217 10.308 144.541 10.824 144.757 11.412C144.985 12 145.099 12.612 145.099 13.248C145.099 13.404 145.093 13.554 145.081 13.698C145.081 13.842 145.069 13.962 145.045 14.058H137.755C137.791 14.43 137.881 14.76 138.025 15.048C138.169 15.336 138.355 15.582 138.583 15.786C138.811 15.99 139.069 16.146 139.357 16.254C139.645 16.362 139.945 16.416 140.257 16.416C140.737 16.416 141.187 16.302 141.607 16.074C142.039 15.834 142.333 15.522 142.489 15.138L144.559 15.714C144.211 16.434 143.653 17.028 142.885 17.496C142.129 17.952 141.223 18.18 140.167 18.18ZM142.615 12.492C142.555 11.784 142.291 11.22 141.823 10.8C141.367 10.368 140.809 10.152 140.149 10.152C139.825 10.152 139.519 10.212 139.231 10.332C138.955 10.44 138.709 10.596 138.493 10.8C138.277 11.004 138.097 11.25 137.953 11.538C137.821 11.826 137.743 12.144 137.719 12.492H142.615ZM150.943 18.18C150.187 18.18 149.503 18.054 148.891 17.802C148.279 17.538 147.757 17.184 147.325 16.74C146.893 16.296 146.557 15.78 146.317 15.192C146.089 14.604 145.975 13.986 145.975 13.338C145.975 12.666 146.089 12.036 146.317 11.448C146.545 10.848 146.875 10.326 147.307 9.882C147.739 9.426 148.261 9.066 148.873 8.802C149.497 8.538 150.193 8.406 150.961 8.406C151.729 8.406 152.413 8.538 153.013 8.802C153.625 9.066 154.141 9.42 154.561 9.864C154.993 10.308 155.317 10.824 155.533 11.412C155.761 12 155.875 12.612 155.875 13.248C155.875 13.404 155.869 13.554 155.857 13.698C155.857 13.842 155.845 13.962 155.821 14.058H148.531C148.567 14.43 148.657 14.76 148.801 15.048C148.945 15.336 149.131 15.582 149.359 15.786C149.587 15.99 149.845 16.146 150.133 16.254C150.421 16.362 150.721 16.416 151.033 16.416C151.513 16.416 151.963 16.302 152.383 16.074C152.815 15.834 153.109 15.522 153.265 15.138L155.335 15.714C154.987 16.434 154.429 17.028 153.661 17.496C152.905 17.952 151.999 18.18 150.943 18.18ZM153.391 12.492C153.331 11.784 153.067 11.22 152.599 10.8C152.143 10.368 151.585 10.152 150.925 10.152C150.601 10.152 150.295 10.212 150.007 10.332C149.731 10.44 149.485 10.596 149.269 10.8C149.053 11.004 148.873 11.25 148.729 11.538C148.597 11.826 148.519 12.144 148.495 12.492H153.391ZM157.26 9.378L157.656 7.182H156.936V4.752H159.366V7.218L158.718 9.378H157.26ZM164.723 18.18C163.931 18.18 163.157 18.054 162.401 17.802C161.645 17.55 160.997 17.19 160.457 16.722L161.357 15.21C161.933 15.618 162.491 15.93 163.031 16.146C163.583 16.35 164.129 16.452 164.669 16.452C165.149 16.452 165.527 16.362 165.803 16.182C166.079 16.002 166.217 15.744 166.217 15.408C166.217 15.072 166.055 14.826 165.731 14.67C165.407 14.514 164.879 14.334 164.147 14.13C163.535 13.962 163.013 13.8 162.581 13.644C162.149 13.488 161.801 13.314 161.537 13.122C161.273 12.918 161.081 12.69 160.961 12.438C160.841 12.174 160.781 11.862 160.781 11.502C160.781 11.022 160.871 10.59 161.051 10.206C161.243 9.822 161.507 9.498 161.843 9.234C162.179 8.958 162.569 8.748 163.013 8.604C163.469 8.46 163.961 8.388 164.489 8.388C165.197 8.388 165.857 8.49 166.469 8.694C167.093 8.898 167.663 9.228 168.179 9.684L167.207 11.142C166.727 10.782 166.259 10.518 165.803 10.35C165.359 10.182 164.915 10.098 164.471 10.098C164.063 10.098 163.721 10.182 163.445 10.35C163.169 10.518 163.031 10.788 163.031 11.16C163.031 11.328 163.061 11.466 163.121 11.574C163.193 11.682 163.301 11.778 163.445 11.862C163.589 11.946 163.775 12.03 164.003 12.114C164.243 12.186 164.537 12.264 164.885 12.348C165.533 12.516 166.085 12.684 166.541 12.852C167.009 13.02 167.387 13.212 167.675 13.428C167.975 13.644 168.191 13.896 168.323 14.184C168.467 14.46 168.539 14.796 168.539 15.192C168.539 16.116 168.197 16.848 167.513 17.388C166.829 17.916 165.899 18.18 164.723 18.18ZM184.96 14.706C184.96 15.246 184.852 15.72 184.636 16.128C184.42 16.536 184.12 16.878 183.736 17.154C183.364 17.43 182.926 17.64 182.422 17.784C181.93 17.928 181.402 18 180.838 18H174.664V5.22H181.504C181.948 5.22 182.35 5.316 182.71 5.508C183.07 5.7 183.376 5.952 183.628 6.264C183.88 6.564 184.072 6.912 184.204 7.308C184.348 7.692 184.42 8.082 184.42 8.478C184.42 9.102 184.264 9.69 183.952 10.242C183.64 10.782 183.184 11.184 182.584 11.448C183.316 11.664 183.892 12.054 184.312 12.618C184.744 13.17 184.96 13.866 184.96 14.706ZM182.458 14.238C182.458 14.01 182.416 13.794 182.332 13.59C182.26 13.374 182.158 13.188 182.026 13.032C181.894 12.876 181.738 12.756 181.558 12.672C181.378 12.576 181.18 12.528 180.964 12.528H177.148V15.894H180.838C181.066 15.894 181.276 15.852 181.468 15.768C181.672 15.684 181.846 15.57 181.99 15.426C182.134 15.27 182.248 15.09 182.332 14.886C182.416 14.682 182.458 14.466 182.458 14.238ZM177.148 7.344V10.566H180.46C180.88 10.566 181.234 10.422 181.522 10.134C181.822 9.846 181.972 9.45 181.972 8.946C181.972 8.454 181.834 8.064 181.558 7.776C181.294 7.488 180.964 7.344 180.568 7.344H177.148ZM186.646 4.86H189.058V14.976C189.058 15.324 189.142 15.594 189.31 15.786C189.478 15.978 189.718 16.074 190.03 16.074C190.174 16.074 190.33 16.05 190.498 16.002C190.678 15.954 190.846 15.894 191.002 15.822L191.326 17.658C191.002 17.814 190.624 17.934 190.192 18.018C189.76 18.102 189.37 18.144 189.022 18.144C188.266 18.144 187.678 17.946 187.258 17.55C186.85 17.142 186.646 16.566 186.646 15.822V4.86ZM196.733 18.18C195.965 18.18 195.275 18.048 194.663 17.784C194.051 17.52 193.529 17.166 193.097 16.722C192.677 16.266 192.353 15.744 192.125 15.156C191.897 14.568 191.783 13.95 191.783 13.302C191.783 12.642 191.897 12.018 192.125 11.43C192.353 10.842 192.677 10.326 193.097 9.882C193.529 9.426 194.051 9.066 194.663 8.802C195.275 8.538 195.965 8.406 196.733 8.406C197.501 8.406 198.185 8.538 198.785 8.802C199.397 9.066 199.913 9.426 200.333 9.882C200.765 10.326 201.095 10.842 201.323 11.43C201.551 12.018 201.665 12.642 201.665 13.302C201.665 13.95 201.551 14.568 201.323 15.156C201.095 15.744 200.771 16.266 200.351 16.722C199.931 17.166 199.415 17.52 198.803 17.784C198.191 18.048 197.501 18.18 196.733 18.18ZM194.267 13.302C194.267 13.722 194.327 14.106 194.447 14.454C194.579 14.79 194.753 15.084 194.969 15.336C195.197 15.588 195.461 15.786 195.761 15.93C196.061 16.062 196.385 16.128 196.733 16.128C197.081 16.128 197.405 16.062 197.705 15.93C198.005 15.786 198.263 15.588 198.479 15.336C198.707 15.084 198.881 14.784 199.001 14.436C199.133 14.088 199.199 13.704 199.199 13.284C199.199 12.876 199.133 12.498 199.001 12.15C198.881 11.802 198.707 11.502 198.479 11.25C198.263 10.998 198.005 10.806 197.705 10.674C197.405 10.53 197.081 10.458 196.733 10.458C196.385 10.458 196.061 10.53 195.761 10.674C195.461 10.818 195.197 11.016 194.969 11.268C194.753 11.52 194.579 11.82 194.447 12.168C194.327 12.516 194.267 12.894 194.267 13.302ZM206.983 18.054C206.347 18.054 205.771 17.928 205.255 17.676C204.739 17.424 204.289 17.082 203.905 16.65C203.533 16.206 203.245 15.696 203.041 15.12C202.837 14.544 202.735 13.932 202.735 13.284C202.735 12.6 202.843 11.964 203.059 11.376C203.275 10.788 203.575 10.272 203.959 9.828C204.343 9.384 204.805 9.036 205.345 8.784C205.885 8.532 206.479 8.406 207.127 8.406C207.859 8.406 208.501 8.574 209.053 8.91C209.605 9.234 210.061 9.672 210.421 10.224V8.568H212.527V17.55C212.527 18.246 212.395 18.87 212.131 19.422C211.867 19.974 211.501 20.442 211.033 20.826C210.577 21.21 210.025 21.504 209.377 21.708C208.741 21.912 208.045 22.014 207.289 22.014C206.257 22.014 205.387 21.84 204.679 21.492C203.983 21.156 203.383 20.676 202.879 20.052L204.193 18.774C204.553 19.218 205.003 19.566 205.543 19.818C206.095 20.07 206.677 20.196 207.289 20.196C207.661 20.196 208.015 20.142 208.351 20.034C208.699 19.938 209.005 19.782 209.269 19.566C209.533 19.35 209.737 19.074 209.881 18.738C210.037 18.402 210.115 18.006 210.115 17.55V16.362C209.803 16.902 209.365 17.322 208.801 17.622C208.237 17.91 207.631 18.054 206.983 18.054ZM207.793 16.128C208.057 16.128 208.309 16.086 208.549 16.002C208.789 15.918 209.011 15.804 209.215 15.66C209.419 15.516 209.599 15.348 209.755 15.156C209.911 14.964 210.031 14.76 210.115 14.544V12.294C209.899 11.742 209.557 11.298 209.089 10.962C208.633 10.626 208.153 10.458 207.649 10.458C207.277 10.458 206.941 10.542 206.641 10.71C206.341 10.866 206.083 11.082 205.867 11.358C205.651 11.622 205.483 11.928 205.363 12.276C205.255 12.624 205.201 12.984 205.201 13.356C205.201 13.74 205.267 14.1 205.399 14.436C205.531 14.772 205.711 15.066 205.939 15.318C206.179 15.57 206.455 15.768 206.767 15.912C207.079 16.056 207.421 16.128 207.793 16.128Z" fill="#3C3C9F"/>
</svg>
